# xmcd
#
# Track frame offsets:
#	150
#	18107
#	31725
#	47790
#	63400
#	77540
#	89332
#	104750
#	121052
#	134902
#	150607
#	168857
#	185755
#	197105
#	207690
#	224812
#	236610
#
# Disc length: 3311 seconds
#
# Revision: 0
# Processed by: cddbd v1.5.2PL0 Copyright (c) Steve Scherf et al.
# Submitted via: EZCDAudioConverter 1.3.2.1
#
DISCID=f70ced11
DTITLE=조경수 - 오리지날힛송
DYEAR=1998
DGENRE=ballads
TTITLE0=행복이란
TTITLE1=돌려줄수없나요
TTITLE2=높은하늘아
TTITLE3=야간학생
TTITLE4=가버린사랑
TTITLE5=그대
TTITLE6=낙엽위의바이올린
TTITLE7=푸른연인
TTITLE8=미워서가아니다
TTITLE9=아니야
TTITLE10=YMCA
TTITLE11=오해
TTITLE12=하루해가저물었네
TTITLE13=내마음모르고
TTITLE14=머물고싶지만
TTITLE15=밎지는못할거야
TTITLE16=당신
EXTD=
EXTT0=
EXTT1=
EXTT2=
EXTT3=
EXTT4=
EXTT5=
EXTT6=
EXTT7=
EXTT8=
EXTT9=
EXTT10=
EXTT11=
EXTT12=
EXTT13=
EXTT14=
EXTT15=
EXTT16=
PLAYORDER=
